<?xml version="1.0" encoding="UTF-8"?>
<svg id="Layer_1" data-name="Layer 1" xmlns="http://www.w3.org/2000/svg" viewBox="0 0 215.53 114.28">
  <rect width="215.53" height="114.28"/>
  <path d="M59.96,114.28h93.38c13.02,0,19.47-6.45,19.47-19.22V19.35C172.81,6.57,166.36.12,153.34.12H59.96c-12.96,0-19.47,6.39-19.47,19.22v75.71c0,12.84,6.51,19.22,19.47,19.22ZM51.96,77.01v-39.62c0-2.05,1.67-3.72,3.72-3.72s3.78,1.67,3.78,3.72v39.62c0,2.05-1.74,3.72-3.78,3.72s-3.72-1.67-3.72-3.72ZM70.87,104.29V10.11h71.55v94.19h-71.55ZM153.9,77.01v-39.62c0-2.05,1.67-3.72,3.72-3.72s3.78,1.67,3.78,3.72v39.62c0,2.05-1.74,3.72-3.78,3.72s-3.72-1.67-3.72-3.72Z"/>
  <path d="M0,70.94c0,3.35,2.73,4.77,5.64,2.98l22.01-13.39c2.79-1.74,2.73-5.02,0-6.7l-22.07-13.52c-2.91-1.8-5.58-.25-5.58,3.04v27.59ZM213.24,70.94v-27.59c0-3.29-2.67-4.84-5.58-3.04l-22.01,13.52c-2.79,1.67-2.85,4.96,0,6.7l22.01,13.39c2.91,1.8,5.58.37,5.58-2.98Z"/>
</svg>